<svg xmlns="http://www.w3.org/2000/svg" xmlns:xlink="http://www.w3.org/1999/xlink" width="1080" zoomAndPan="magnify" viewBox="0 0 810 809.999993" height="1080" preserveAspectRatio="xMidYMid meet" version="1.0"><defs><clipPath id="67ffb1680d"><path d="M 149.792969 149.792969 L 660.207031 149.792969 L 660.207031 660.207031 L 149.792969 660.207031 Z M 149.792969 149.792969 " clip-rule="nonzero"/></clipPath><clipPath id="6a152380cc"><path d="M 222.542969 149.792969 L 587.457031 149.792969 C 606.753906 149.792969 625.257812 157.457031 638.898438 171.101562 C 652.542969 184.742188 660.207031 203.246094 660.207031 222.542969 L 660.207031 587.457031 C 660.207031 606.753906 652.542969 625.257812 638.898438 638.898438 C 625.257812 652.542969 606.753906 660.207031 587.457031 660.207031 L 222.542969 660.207031 C 203.246094 660.207031 184.742188 652.542969 171.101562 638.898438 C 157.457031 625.257812 149.792969 606.753906 149.792969 587.457031 L 149.792969 222.542969 C 149.792969 203.246094 157.457031 184.742188 171.101562 171.101562 C 184.742188 157.457031 203.246094 149.792969 222.542969 149.792969 Z M 222.542969 149.792969 " clip-rule="nonzero"/></clipPath><clipPath id="216259dd8c"><path d="M 230.449219 230.449219 L 579.199219 230.449219 L 579.199219 579.199219 L 230.449219 579.199219 Z M 230.449219 230.449219 " clip-rule="nonzero"/></clipPath><linearGradient x1="1.219993" gradientTransform="matrix(1, 0, 0, 1, 0.00000764547, 0.00000764547)" y1="225" x2="448.34924" gradientUnits="userSpaceOnUse" y2="225" id="99b05b050f"><stop stop-opacity="1" stop-color="rgb(45.498657%, 19.599915%, 96.499634%)" offset="0"/><stop stop-opacity="1" stop-color="rgb(45.498657%, 19.599915%, 96.499634%)" offset="0.0625"/><stop stop-opacity="1" stop-color="rgb(45.498657%, 19.599915%, 96.499634%)" offset="0.09375"/><stop stop-opacity="1" stop-color="rgb(45.367432%, 19.625854%, 96.417236%)" offset="0.101562"/><stop stop-opacity="1" stop-color="rgb(44.825745%, 19.737244%, 96.073914%)" offset="0.105469"/><stop stop-opacity="1" stop-color="rgb(44.413757%, 19.822693%, 95.814514%)" offset="0.109375"/><stop stop-opacity="1" stop-color="rgb(44.00177%, 19.908142%, 95.555115%)" offset="0.113281"/><stop stop-opacity="1" stop-color="rgb(43.589783%, 19.993591%, 95.295715%)" offset="0.117188"/><stop stop-opacity="1" stop-color="rgb(43.177795%, 20.079041%, 95.03479%)" offset="0.121094"/><stop stop-opacity="1" stop-color="rgb(42.765808%, 20.16449%, 94.775391%)" offset="0.125"/><stop stop-opacity="1" stop-color="rgb(42.353821%, 20.248413%, 94.514465%)" offset="0.128906"/><stop stop-opacity="1" stop-color="rgb(41.941833%, 20.333862%, 94.255066%)" offset="0.132812"/><stop stop-opacity="1" stop-color="rgb(41.529846%, 20.419312%, 93.995667%)" offset="0.136719"/><stop stop-opacity="1" stop-color="rgb(41.117859%, 20.504761%, 93.736267%)" offset="0.140625"/><stop stop-opacity="1" stop-color="rgb(40.705872%, 20.588684%, 93.475342%)" offset="0.144531"/><stop stop-opacity="1" stop-color="rgb(40.293884%, 20.674133%, 93.215942%)" offset="0.148438"/><stop stop-opacity="1" stop-color="rgb(39.881897%, 20.759583%, 92.956543%)" offset="0.152344"/><stop stop-opacity="1" stop-color="rgb(39.46991%, 20.845032%, 92.697144%)" offset="0.15625"/><stop stop-opacity="1" stop-color="rgb(39.057922%, 20.928955%, 92.436218%)" offset="0.160156"/><stop stop-opacity="1" stop-color="rgb(38.647461%, 21.014404%, 92.176819%)" offset="0.164062"/><stop stop-opacity="1" stop-color="rgb(38.235474%, 21.099854%, 91.915894%)" offset="0.167969"/><stop stop-opacity="1" stop-color="rgb(37.823486%, 21.185303%, 91.656494%)" offset="0.171875"/><stop stop-opacity="1" stop-color="rgb(37.411499%, 21.269226%, 91.397095%)" offset="0.175781"/><stop stop-opacity="1" stop-color="rgb(36.999512%, 21.354675%, 91.137695%)" offset="0.179688"/><stop stop-opacity="1" stop-color="rgb(36.587524%, 21.440125%, 90.87677%)" offset="0.183594"/><stop stop-opacity="1" stop-color="rgb(36.175537%, 21.525574%, 90.617371%)" offset="0.1875"/><stop stop-opacity="1" stop-color="rgb(35.76355%, 21.611023%, 90.357971%)" offset="0.191406"/><stop stop-opacity="1" stop-color="rgb(35.351562%, 21.696472%, 90.098572%)" offset="0.195312"/><stop stop-opacity="1" stop-color="rgb(34.939575%, 21.780396%, 89.837646%)" offset="0.199219"/><stop stop-opacity="1" stop-color="rgb(34.527588%, 21.865845%, 89.578247%)" offset="0.203125"/><stop stop-opacity="1" stop-color="rgb(34.115601%, 21.951294%, 89.317322%)" offset="0.207031"/><stop stop-opacity="1" stop-color="rgb(33.703613%, 22.036743%, 89.057922%)" offset="0.210938"/><stop stop-opacity="1" stop-color="rgb(33.291626%, 22.120667%, 88.798523%)" offset="0.214844"/><stop stop-opacity="1" stop-color="rgb(32.879639%, 22.206116%, 88.539124%)" offset="0.21875"/><stop stop-opacity="1" stop-color="rgb(32.467651%, 22.291565%, 88.278198%)" offset="0.222656"/><stop stop-opacity="1" stop-color="rgb(32.055664%, 22.377014%, 88.018799%)" offset="0.226563"/><stop stop-opacity="1" stop-color="rgb(31.643677%, 22.460938%, 87.759399%)" offset="0.230469"/><stop stop-opacity="1" stop-color="rgb(31.231689%, 22.546387%, 87.5%)" offset="0.234375"/><stop stop-opacity="1" stop-color="rgb(30.819702%, 22.631836%, 87.239075%)" offset="0.238281"/><stop stop-opacity="1" stop-color="rgb(30.407715%, 22.717285%, 86.979675%)" offset="0.242188"/><stop stop-opacity="1" stop-color="rgb(29.995728%, 22.801208%, 86.71875%)" offset="0.246094"/><stop stop-opacity="1" stop-color="rgb(29.58374%, 22.886658%, 86.459351%)" offset="0.25"/><stop stop-opacity="1" stop-color="rgb(29.171753%, 22.972107%, 86.199951%)" offset="0.253906"/><stop stop-opacity="1" stop-color="rgb(28.759766%, 23.057556%, 85.940552%)" offset="0.257812"/><stop stop-opacity="1" stop-color="rgb(28.347778%, 23.143005%, 85.679626%)" offset="0.261719"/><stop stop-opacity="1" stop-color="rgb(27.935791%, 23.228455%, 85.420227%)" offset="0.265625"/><stop stop-opacity="1" stop-color="rgb(27.523804%, 23.312378%, 85.160828%)" offset="0.269531"/><stop stop-opacity="1" stop-color="rgb(27.111816%, 23.397827%, 84.901428%)" offset="0.273437"/><stop stop-opacity="1" stop-color="rgb(26.699829%, 23.483276%, 84.640503%)" offset="0.277344"/><stop stop-opacity="1" stop-color="rgb(26.287842%, 23.568726%, 84.381104%)" offset="0.28125"/><stop stop-opacity="1" stop-color="rgb(25.875854%, 23.652649%, 84.120178%)" offset="0.285156"/><stop stop-opacity="1" stop-color="rgb(25.463867%, 23.738098%, 83.860779%)" offset="0.289062"/><stop stop-opacity="1" stop-color="rgb(25.05188%, 23.823547%, 83.601379%)" offset="0.292969"/><stop stop-opacity="1" stop-color="rgb(24.639893%, 23.908997%, 83.34198%)" offset="0.296875"/><stop stop-opacity="1" stop-color="rgb(24.227905%, 23.99292%, 83.081055%)" offset="0.300781"/><stop stop-opacity="1" stop-color="rgb(23.815918%, 24.078369%, 82.821655%)" offset="0.304688"/><stop stop-opacity="1" stop-color="rgb(23.403931%, 24.163818%, 82.562256%)" offset="0.308594"/><stop stop-opacity="1" stop-color="rgb(22.991943%, 24.249268%, 82.302856%)" offset="0.3125"/><stop stop-opacity="1" stop-color="rgb(22.579956%, 24.333191%, 82.041931%)" offset="0.316406"/><stop stop-opacity="1" stop-color="rgb(22.167969%, 24.41864%, 81.782532%)" offset="0.320313"/><stop stop-opacity="1" stop-color="rgb(21.755981%, 24.504089%, 81.521606%)" offset="0.324219"/><stop stop-opacity="1" stop-color="rgb(21.343994%, 24.589539%, 81.262207%)" offset="0.328125"/><stop stop-opacity="1" stop-color="rgb(20.932007%, 24.674988%, 81.002808%)" offset="0.332031"/><stop stop-opacity="1" stop-color="rgb(20.52002%, 24.760437%, 80.743408%)" offset="0.335938"/><stop stop-opacity="1" stop-color="rgb(20.108032%, 24.84436%, 80.482483%)" offset="0.339844"/><stop stop-opacity="1" stop-color="rgb(19.696045%, 24.92981%, 80.223083%)" offset="0.34375"/><stop stop-opacity="1" stop-color="rgb(19.284058%, 25.015259%, 79.963684%)" offset="0.347656"/><stop stop-opacity="1" stop-color="rgb(18.87207%, 25.100708%, 79.704285%)" offset="0.351562"/><stop stop-opacity="1" stop-color="rgb(18.460083%, 25.184631%, 79.443359%)" offset="0.355469"/><stop stop-opacity="1" stop-color="rgb(18.048096%, 25.270081%, 79.18396%)" offset="0.359375"/><stop stop-opacity="1" stop-color="rgb(17.636108%, 25.35553%, 78.923035%)" offset="0.363281"/><stop stop-opacity="1" stop-color="rgb(17.224121%, 25.440979%, 78.663635%)" offset="0.367188"/><stop stop-opacity="1" stop-color="rgb(16.812134%, 25.524902%, 78.404236%)" offset="0.371094"/><stop stop-opacity="1" stop-color="rgb(16.400146%, 25.610352%, 78.144836%)" offset="0.375"/><stop stop-opacity="1" stop-color="rgb(15.988159%, 25.695801%, 77.883911%)" offset="0.378906"/><stop stop-opacity="1" stop-color="rgb(15.576172%, 25.78125%, 77.624512%)" offset="0.382812"/><stop stop-opacity="1" stop-color="rgb(15.164185%, 25.865173%, 77.365112%)" offset="0.386719"/><stop stop-opacity="1" stop-color="rgb(14.752197%, 25.950623%, 77.105713%)" offset="0.390625"/><stop stop-opacity="1" stop-color="rgb(14.34021%, 26.036072%, 76.844788%)" offset="0.394531"/><stop stop-opacity="1" stop-color="rgb(13.928223%, 26.121521%, 76.585388%)" offset="0.398438"/><stop stop-opacity="1" stop-color="rgb(13.516235%, 26.20697%, 76.324463%)" offset="0.402344"/><stop stop-opacity="1" stop-color="rgb(13.104248%, 26.292419%, 76.065063%)" offset="0.40625"/><stop stop-opacity="1" stop-color="rgb(12.692261%, 26.376343%, 75.805664%)" offset="0.410156"/><stop stop-opacity="1" stop-color="rgb(12.280273%, 26.461792%, 75.546265%)" offset="0.414062"/><stop stop-opacity="1" stop-color="rgb(11.868286%, 26.547241%, 75.285339%)" offset="0.417969"/><stop stop-opacity="1" stop-color="rgb(11.456299%, 26.63269%, 75.02594%)" offset="0.421875"/><stop stop-opacity="1" stop-color="rgb(11.044312%, 26.716614%, 74.766541%)" offset="0.425781"/><stop stop-opacity="1" stop-color="rgb(10.632324%, 26.802063%, 74.507141%)" offset="0.429688"/><stop stop-opacity="1" stop-color="rgb(10.220337%, 26.887512%, 74.246216%)" offset="0.433594"/><stop stop-opacity="1" stop-color="rgb(9.80835%, 26.972961%, 73.986816%)" offset="0.4375"/><stop stop-opacity="1" stop-color="rgb(9.396362%, 27.056885%, 73.725891%)" offset="0.441406"/><stop stop-opacity="1" stop-color="rgb(8.984375%, 27.142334%, 73.466492%)" offset="0.445312"/><stop stop-opacity="1" stop-color="rgb(8.572388%, 27.227783%, 73.207092%)" offset="0.449219"/><stop stop-opacity="1" stop-color="rgb(8.1604%, 27.313232%, 72.947693%)" offset="0.453125"/><stop stop-opacity="1" stop-color="rgb(7.748413%, 27.397156%, 72.686768%)" offset="0.457031"/><stop stop-opacity="1" stop-color="rgb(7.336426%, 27.482605%, 72.427368%)" offset="0.460938"/><stop stop-opacity="1" stop-color="rgb(6.924438%, 27.568054%, 72.167969%)" offset="0.464844"/><stop stop-opacity="1" stop-color="rgb(6.512451%, 27.653503%, 71.908569%)" offset="0.46875"/><stop stop-opacity="1" stop-color="rgb(6.100464%, 27.738953%, 71.647644%)" offset="0.472656"/><stop stop-opacity="1" stop-color="rgb(5.688477%, 27.824402%, 71.388245%)" offset="0.476562"/><stop stop-opacity="1" stop-color="rgb(5.276489%, 27.908325%, 71.127319%)" offset="0.480469"/><stop stop-opacity="1" stop-color="rgb(4.864502%, 27.993774%, 70.86792%)" offset="0.484375"/><stop stop-opacity="1" stop-color="rgb(4.452515%, 28.079224%, 70.608521%)" offset="0.488281"/><stop stop-opacity="1" stop-color="rgb(4.040527%, 28.164673%, 70.349121%)" offset="0.492187"/><stop stop-opacity="1" stop-color="rgb(3.62854%, 28.248596%, 70.088196%)" offset="0.496094"/><stop stop-opacity="1" stop-color="rgb(3.216553%, 28.334045%, 69.828796%)" offset="0.5"/><stop stop-opacity="1" stop-color="rgb(2.804565%, 28.419495%, 69.569397%)" offset="0.503906"/><stop stop-opacity="1" stop-color="rgb(2.392578%, 28.504944%, 69.309998%)" offset="0.507812"/><stop stop-opacity="1" stop-color="rgb(1.980591%, 28.588867%, 69.049072%)" offset="0.511719"/><stop stop-opacity="1" stop-color="rgb(1.568604%, 28.674316%, 68.789673%)" offset="0.515625"/><stop stop-opacity="1" stop-color="rgb(1.156616%, 28.759766%, 68.528748%)" offset="0.519531"/><stop stop-opacity="1" stop-color="rgb(0.744629%, 28.845215%, 68.269348%)" offset="0.523438"/><stop stop-opacity="1" stop-color="rgb(0.40741%, 28.948975%, 68.051147%)" offset="0.527344"/><stop stop-opacity="1" stop-color="rgb(0.0701904%, 29.05426%, 67.832947%)" offset="0.53125"/><stop stop-opacity="1" stop-color="rgb(0.448608%, 29.347229%, 68.011475%)" offset="0.535156"/><stop stop-opacity="1" stop-color="rgb(0.827026%, 29.640198%, 68.191528%)" offset="0.539062"/><stop stop-opacity="1" stop-color="rgb(1.203918%, 29.933167%, 68.370056%)" offset="0.542969"/><stop stop-opacity="1" stop-color="rgb(1.582336%, 30.227661%, 68.55011%)" offset="0.546875"/><stop stop-opacity="1" stop-color="rgb(1.959229%, 30.52063%, 68.728638%)" offset="0.550781"/><stop stop-opacity="1" stop-color="rgb(2.337646%, 30.813599%, 68.908691%)" offset="0.554688"/><stop stop-opacity="1" stop-color="rgb(2.714539%, 31.106567%, 69.087219%)" offset="0.558594"/><stop stop-opacity="1" stop-color="rgb(3.092957%, 31.399536%, 69.267273%)" offset="0.5625"/><stop stop-opacity="1" stop-color="rgb(3.469849%, 31.692505%, 69.445801%)" offset="0.566406"/><stop stop-opacity="1" stop-color="rgb(3.848267%, 31.985474%, 69.625854%)" offset="0.570312"/><stop stop-opacity="1" stop-color="rgb(4.225159%, 32.278442%, 69.805908%)" offset="0.574219"/><stop stop-opacity="1" stop-color="rgb(4.603577%, 32.571411%, 69.985962%)" offset="0.578125"/><stop stop-opacity="1" stop-color="rgb(4.981995%, 32.86438%, 70.16449%)" offset="0.582031"/><stop stop-opacity="1" stop-color="rgb(5.360413%, 33.157349%, 70.344543%)" offset="0.585937"/><stop stop-opacity="1" stop-color="rgb(5.737305%, 33.450317%, 70.523071%)" offset="0.589844"/><stop stop-opacity="1" stop-color="rgb(6.115723%, 33.744812%, 70.703125%)" offset="0.59375"/><stop stop-opacity="1" stop-color="rgb(6.492615%, 34.037781%, 70.881653%)" offset="0.597656"/><stop stop-opacity="1" stop-color="rgb(6.871033%, 34.33075%, 71.061707%)" offset="0.601563"/><stop stop-opacity="1" stop-color="rgb(7.247925%, 34.623718%, 71.240234%)" offset="0.605469"/><stop stop-opacity="1" stop-color="rgb(7.626343%, 34.916687%, 71.420288%)" offset="0.609375"/><stop stop-opacity="1" stop-color="rgb(8.003235%, 35.209656%, 71.598816%)" offset="0.613281"/><stop stop-opacity="1" stop-color="rgb(8.381653%, 35.502625%, 71.77887%)" offset="0.617188"/><stop stop-opacity="1" stop-color="rgb(8.758545%, 35.795593%, 71.957397%)" offset="0.621094"/><stop stop-opacity="1" stop-color="rgb(9.136963%, 36.088562%, 72.137451%)" offset="0.625"/><stop stop-opacity="1" stop-color="rgb(9.515381%, 36.381531%, 72.315979%)" offset="0.628906"/><stop stop-opacity="1" stop-color="rgb(9.893799%, 36.6745%, 72.496033%)" offset="0.632812"/><stop stop-opacity="1" stop-color="rgb(10.270691%, 36.967468%, 72.674561%)" offset="0.636719"/><stop stop-opacity="1" stop-color="rgb(10.649109%, 37.261963%, 72.854614%)" offset="0.640625"/><stop stop-opacity="1" stop-color="rgb(11.026001%, 37.554932%, 73.033142%)" offset="0.644531"/><stop stop-opacity="1" stop-color="rgb(11.404419%, 37.8479%, 73.213196%)" offset="0.648437"/><stop stop-opacity="1" stop-color="rgb(11.781311%, 38.140869%, 73.391724%)" offset="0.652344"/><stop stop-opacity="1" stop-color="rgb(12.159729%, 38.433838%, 73.571777%)" offset="0.65625"/><stop stop-opacity="1" stop-color="rgb(12.536621%, 38.726807%, 73.750305%)" offset="0.660156"/><stop stop-opacity="1" stop-color="rgb(12.915039%, 39.019775%, 73.930359%)" offset="0.664063"/><stop stop-opacity="1" stop-color="rgb(13.291931%, 39.312744%, 74.108887%)" offset="0.667969"/><stop stop-opacity="1" stop-color="rgb(13.670349%, 39.605713%, 74.28894%)" offset="0.671875"/><stop stop-opacity="1" stop-color="rgb(14.048767%, 39.898682%, 74.467468%)" offset="0.675781"/><stop stop-opacity="1" stop-color="rgb(14.427185%, 40.19165%, 74.647522%)" offset="0.679688"/><stop stop-opacity="1" stop-color="rgb(14.804077%, 40.484619%, 74.827576%)" offset="0.683594"/><stop stop-opacity="1" stop-color="rgb(15.182495%, 40.779114%, 75.007629%)" offset="0.6875"/><stop stop-opacity="1" stop-color="rgb(15.559387%, 41.072083%, 75.186157%)" offset="0.691406"/><stop stop-opacity="1" stop-color="rgb(15.937805%, 41.365051%, 75.366211%)" offset="0.695312"/><stop stop-opacity="1" stop-color="rgb(16.314697%, 41.65802%, 75.544739%)" offset="0.699219"/><stop stop-opacity="1" stop-color="rgb(16.693115%, 41.950989%, 75.724792%)" offset="0.703125"/><stop stop-opacity="1" stop-color="rgb(17.070007%, 42.243958%, 75.90332%)" offset="0.707031"/><stop stop-opacity="1" stop-color="rgb(17.448425%, 42.536926%, 76.083374%)" offset="0.710938"/><stop stop-opacity="1" stop-color="rgb(17.825317%, 42.829895%, 76.261902%)" offset="0.714844"/><stop stop-opacity="1" stop-color="rgb(18.203735%, 43.122864%, 76.441956%)" offset="0.71875"/><stop stop-opacity="1" stop-color="rgb(18.582153%, 43.415833%, 76.620483%)" offset="0.722656"/><stop stop-opacity="1" stop-color="rgb(18.960571%, 43.708801%, 76.800537%)" offset="0.726562"/><stop stop-opacity="1" stop-color="rgb(19.337463%, 44.00177%, 76.979065%)" offset="0.730469"/><stop stop-opacity="1" stop-color="rgb(19.715881%, 44.296265%, 77.159119%)" offset="0.734375"/><stop stop-opacity="1" stop-color="rgb(20.092773%, 44.589233%, 77.337646%)" offset="0.738281"/><stop stop-opacity="1" stop-color="rgb(20.471191%, 44.882202%, 77.5177%)" offset="0.742187"/><stop stop-opacity="1" stop-color="rgb(20.848083%, 45.175171%, 77.696228%)" offset="0.746094"/><stop stop-opacity="1" stop-color="rgb(21.226501%, 45.46814%, 77.876282%)" offset="0.75"/><stop stop-opacity="1" stop-color="rgb(21.603394%, 45.761108%, 78.05481%)" offset="0.753906"/><stop stop-opacity="1" stop-color="rgb(21.981812%, 46.054077%, 78.234863%)" offset="0.757813"/><stop stop-opacity="1" stop-color="rgb(22.360229%, 46.347046%, 78.413391%)" offset="0.761719"/><stop stop-opacity="1" stop-color="rgb(22.738647%, 46.640015%, 78.593445%)" offset="0.765625"/><stop stop-opacity="1" stop-color="rgb(23.11554%, 46.932983%, 78.771973%)" offset="0.769531"/><stop stop-opacity="1" stop-color="rgb(23.493958%, 47.225952%, 78.952026%)" offset="0.773438"/><stop stop-opacity="1" stop-color="rgb(23.87085%, 47.518921%, 79.130554%)" offset="0.777344"/><stop stop-opacity="1" stop-color="rgb(24.249268%, 47.813416%, 79.310608%)" offset="0.78125"/><stop stop-opacity="1" stop-color="rgb(24.62616%, 48.106384%, 79.489136%)" offset="0.785156"/><stop stop-opacity="1" stop-color="rgb(25.004578%, 48.399353%, 79.669189%)" offset="0.789062"/><stop stop-opacity="1" stop-color="rgb(25.38147%, 48.692322%, 79.849243%)" offset="0.792969"/><stop stop-opacity="1" stop-color="rgb(25.759888%, 48.985291%, 80.029297%)" offset="0.796875"/><stop stop-opacity="1" stop-color="rgb(26.13678%, 49.278259%, 80.207825%)" offset="0.800781"/><stop stop-opacity="1" stop-color="rgb(26.515198%, 49.571228%, 80.387878%)" offset="0.804687"/><stop stop-opacity="1" stop-color="rgb(26.893616%, 49.864197%, 80.566406%)" offset="0.808594"/><stop stop-opacity="1" stop-color="rgb(27.272034%, 50.157166%, 80.74646%)" offset="0.8125"/><stop stop-opacity="1" stop-color="rgb(27.648926%, 50.450134%, 80.924988%)" offset="0.816406"/><stop stop-opacity="1" stop-color="rgb(28.027344%, 50.743103%, 81.105042%)" offset="0.820312"/><stop stop-opacity="1" stop-color="rgb(28.404236%, 51.036072%, 81.283569%)" offset="0.824219"/><stop stop-opacity="1" stop-color="rgb(28.782654%, 51.330566%, 81.463623%)" offset="0.828125"/><stop stop-opacity="1" stop-color="rgb(29.159546%, 51.623535%, 81.642151%)" offset="0.832031"/><stop stop-opacity="1" stop-color="rgb(29.537964%, 51.916504%, 81.822205%)" offset="0.835937"/><stop stop-opacity="1" stop-color="rgb(29.914856%, 52.209473%, 82.000732%)" offset="0.839844"/><stop stop-opacity="1" stop-color="rgb(30.293274%, 52.502441%, 82.180786%)" offset="0.84375"/><stop stop-opacity="1" stop-color="rgb(30.670166%, 52.79541%, 82.359314%)" offset="0.847656"/><stop stop-opacity="1" stop-color="rgb(31.048584%, 53.088379%, 82.539368%)" offset="0.851562"/><stop stop-opacity="1" stop-color="rgb(31.427002%, 53.381348%, 82.717896%)" offset="0.855469"/><stop stop-opacity="1" stop-color="rgb(31.80542%, 53.674316%, 82.897949%)" offset="0.859375"/><stop stop-opacity="1" stop-color="rgb(32.182312%, 53.967285%, 83.076477%)" offset="0.863281"/><stop stop-opacity="1" stop-color="rgb(32.56073%, 54.260254%, 83.256531%)" offset="0.867188"/><stop stop-opacity="1" stop-color="rgb(32.937622%, 54.553223%, 83.435059%)" offset="0.871094"/><stop stop-opacity="1" stop-color="rgb(33.31604%, 54.847717%, 83.615112%)" offset="0.875"/><stop stop-opacity="1" stop-color="rgb(33.692932%, 55.140686%, 83.79364%)" offset="0.878906"/><stop stop-opacity="1" stop-color="rgb(34.07135%, 55.433655%, 83.973694%)" offset="0.882812"/><stop stop-opacity="1" stop-color="rgb(34.448242%, 55.726624%, 84.152222%)" offset="0.886719"/><stop stop-opacity="1" stop-color="rgb(34.82666%, 56.019592%, 84.332275%)" offset="0.890625"/><stop stop-opacity="1" stop-color="rgb(35.203552%, 56.312561%, 84.510803%)" offset="0.894531"/><stop stop-opacity="1" stop-color="rgb(35.58197%, 56.60553%, 84.690857%)" offset="0.898437"/><stop stop-opacity="1" stop-color="rgb(35.960388%, 56.898499%, 84.870911%)" offset="0.902344"/><stop stop-opacity="1" stop-color="rgb(36.338806%, 57.191467%, 85.050964%)" offset="0.90625"/><stop stop-opacity="1" stop-color="rgb(36.715698%, 57.484436%, 85.229492%)" offset="0.910156"/><stop stop-opacity="1" stop-color="rgb(37.094116%, 57.777405%, 85.409546%)" offset="0.914062"/><stop stop-opacity="1" stop-color="rgb(37.471008%, 58.070374%, 85.588074%)" offset="0.917969"/><stop stop-opacity="1" stop-color="rgb(37.849426%, 58.364868%, 85.768127%)" offset="0.921875"/><stop stop-opacity="1" stop-color="rgb(38.226318%, 58.657837%, 85.946655%)" offset="0.925781"/><stop stop-opacity="1" stop-color="rgb(38.604736%, 58.950806%, 86.126709%)" offset="0.929688"/><stop stop-opacity="1" stop-color="rgb(38.981628%, 59.243774%, 86.305237%)" offset="0.933594"/><stop stop-opacity="1" stop-color="rgb(39.360046%, 59.536743%, 86.485291%)" offset="0.9375"/><stop stop-opacity="1" stop-color="rgb(39.738464%, 59.829712%, 86.663818%)" offset="0.941406"/><stop stop-opacity="1" stop-color="rgb(40.116882%, 60.122681%, 86.843872%)" offset="0.945312"/><stop stop-opacity="1" stop-color="rgb(40.493774%, 60.415649%, 87.0224%)" offset="0.949219"/><stop stop-opacity="1" stop-color="rgb(40.872192%, 60.708618%, 87.202454%)" offset="0.953125"/><stop stop-opacity="1" stop-color="rgb(41.249084%, 61.001587%, 87.380981%)" offset="0.957031"/><stop stop-opacity="1" stop-color="rgb(41.627502%, 61.294556%, 87.561035%)" offset="0.960937"/><stop stop-opacity="1" stop-color="rgb(42.004395%, 61.587524%, 87.739563%)" offset="0.964844"/><stop stop-opacity="1" stop-color="rgb(42.382812%, 61.882019%, 87.919617%)" offset="0.96875"/><stop stop-opacity="1" stop-color="rgb(42.759705%, 62.174988%, 88.098145%)" offset="0.972656"/><stop stop-opacity="1" stop-color="rgb(43.138123%, 62.467957%, 88.278198%)" offset="0.976563"/><stop stop-opacity="1" stop-color="rgb(43.515015%, 62.760925%, 88.456726%)" offset="0.980469"/><stop stop-opacity="1" stop-color="rgb(43.893433%, 63.053894%, 88.63678%)" offset="0.984375"/><stop stop-opacity="1" stop-color="rgb(44.271851%, 63.346863%, 88.815308%)" offset="0.988281"/><stop stop-opacity="1" stop-color="rgb(44.650269%, 63.639832%, 88.995361%)" offset="0.992188"/><stop stop-opacity="1" stop-color="rgb(45.027161%, 63.9328%, 89.173889%)" offset="0.996094"/><stop stop-opacity="1" stop-color="rgb(45.405579%, 64.225769%, 89.353943%)" offset="1"/></linearGradient><clipPath id="653badd731"><path d="M 214 245 L 596 245 L 596 565 L 214 565 Z M 214 245 " clip-rule="nonzero"/></clipPath><clipPath id="3fd4d4b069"><path d="M 214.515625 524.003906 L 562.730469 245.09375 L 595.488281 285.992188 L 247.273438 564.902344 Z M 214.515625 524.003906 " clip-rule="nonzero"/></clipPath><clipPath id="7a6d96e647"><path d="M 214.515625 524.003906 L 562.730469 245.09375 L 595.488281 285.992188 L 247.273438 564.902344 Z M 214.515625 524.003906 " clip-rule="nonzero"/></clipPath></defs><g clip-path="url(#67ffb1680d)"><g clip-path="url(#6a152380cc)"><path fill="#ffffff" d="M 149.792969 149.792969 L 660.207031 149.792969 L 660.207031 660.207031 L 149.792969 660.207031 Z M 149.792969 149.792969 " fill-opacity="1" fill-rule="nonzero"/></g></g><g clip-path="url(#216259dd8c)"><path stroke-linecap="butt" transform="matrix(0.779941, 0, 0, 0.779941, 229.512386, 229.512402)" fill="none" stroke-linejoin="miter" d="M 418.780865 225.001142 C 418.780865 228.171454 418.70073 231.341767 418.54547 234.50707 C 418.39021 237.677383 418.159824 240.837678 417.849304 243.992965 C 417.533775 247.148252 417.148129 250.298531 416.682348 253.433784 C 416.216568 256.569038 415.675662 259.694275 415.054621 262.804486 C 414.438589 265.914698 413.742422 269.009884 412.97113 272.085037 C 412.199837 275.16019 411.358427 278.215309 410.436883 281.250395 C 409.515339 284.28548 408.518669 287.295524 407.451882 290.280526 C 406.385094 293.270536 405.243181 296.225487 404.03115 299.155397 C 402.81411 302.085306 401.531962 304.985165 400.174688 307.849965 C 398.817413 310.719774 397.39503 313.549516 395.897521 316.349207 C 394.40502 319.14389 392.842402 321.903514 391.209666 324.623071 C 389.581938 327.342628 387.884093 330.022118 386.121139 332.656532 C 384.358185 335.295954 382.535131 337.885293 380.646967 340.434565 C 378.753794 342.983836 376.80553 345.483024 374.792156 347.932128 C 372.783791 350.38624 370.710317 352.78526 368.58175 355.134196 C 366.453183 357.483132 364.264516 359.781984 362.020756 362.020735 C 359.782005 364.264495 357.483153 366.453162 355.134217 368.581729 C 352.785281 370.710295 350.386261 372.78377 347.932149 374.792135 C 345.483045 376.805509 342.983858 378.758782 340.434586 380.646946 C 337.885314 382.535109 335.295976 384.358164 332.656553 386.121118 C 330.022139 387.884072 327.342649 389.581917 324.623092 391.209645 C 321.903535 392.84238 319.143911 394.404999 316.349228 395.8975 C 313.549537 397.395009 310.719795 398.817392 307.849987 400.174667 C 304.985186 401.531941 302.085327 402.814089 299.155418 404.031129 C 296.225508 405.243159 293.270557 406.385073 290.280547 407.45186 C 287.295545 408.518648 284.285501 409.515318 281.250416 410.436862 C 278.21533 411.358406 275.160211 412.199816 272.085058 412.971109 C 269.009905 413.742401 265.914719 414.438568 262.804507 415.0546 C 259.694296 415.67564 256.569059 416.216547 253.433806 416.682327 C 250.298552 417.148108 247.148273 417.533754 243.992986 417.849283 C 240.837699 418.159803 237.677404 418.390189 234.507092 418.545449 C 231.341788 418.700709 228.171476 418.780844 225.001163 418.780844 C 221.830851 418.780844 218.660539 418.700709 215.490227 418.545449 C 212.324923 418.390189 209.164627 418.159803 206.004332 417.849283 C 202.849045 417.533754 199.703774 417.148108 196.568521 416.682327 C 193.428259 416.216547 190.308031 415.67564 187.197819 415.0546 C 184.082599 414.438568 180.992421 413.742401 177.917268 412.971109 C 174.837107 412.199816 171.781988 411.358406 168.746902 410.436862 C 165.711817 409.515318 162.701773 408.518648 159.716771 407.45186 C 156.73177 406.385073 153.77181 405.243159 150.8419 404.031129 C 147.911991 402.814089 145.01714 401.531941 142.147332 400.174667 C 139.282531 398.817392 136.447781 397.395009 133.653098 395.8975 C 130.853407 394.404999 128.098792 392.84238 125.379235 391.209645 C 122.654669 389.581917 119.980188 387.884072 117.340765 386.121118 C 114.706351 384.358164 112.112004 382.535109 109.567741 380.646946 C 107.018469 378.758782 104.519281 376.805509 102.065169 374.792135 C 99.616065 372.78377 97.217045 370.710295 94.863101 368.581729 C 92.514165 366.453162 90.220322 364.264495 87.976562 362.020735 C 85.732802 359.781984 83.549143 357.483132 81.420577 355.134196 C 79.287001 352.78526 77.218536 350.38624 75.205162 347.932128 C 73.191788 345.483024 71.243524 342.983836 69.35536 340.434565 C 67.467196 337.885293 65.639133 335.295954 63.876179 332.656532 C 62.118233 330.022118 60.420388 327.342628 58.787652 324.623071 C 57.159925 321.903514 55.597307 319.14389 54.099797 316.349207 C 52.607296 313.549516 51.179905 310.719774 49.82263 307.849965 C 48.470364 304.985165 47.183208 302.085306 45.971177 299.155397 C 44.759146 296.225487 43.617232 293.270536 42.545437 290.280526 C 41.478649 287.295524 40.486987 284.28548 39.565443 281.250395 C 38.643899 278.215309 37.797481 275.16019 37.026188 272.085037 C 36.254896 269.009884 35.563738 265.914698 34.942697 262.804486 C 34.326665 259.694275 33.78075 256.569038 33.31497 253.433784 C 32.854198 250.298531 32.463543 247.148252 32.153023 243.992965 C 31.842502 240.837678 31.607108 237.677383 31.451848 234.50707 C 31.296588 231.341767 31.221462 228.171454 31.221462 225.001142 C 31.221462 221.83083 31.296588 218.660518 31.451848 215.490205 C 31.607108 212.324902 31.842502 209.164606 32.153023 206.004311 C 32.463543 202.849024 32.854198 199.703753 33.31497 196.5685 C 33.78075 193.428238 34.326665 190.30801 34.942697 187.197798 C 35.563738 184.082578 36.254896 180.9924 37.026188 177.917247 C 37.797481 174.837086 38.643899 171.781967 39.565443 168.746881 C 40.486987 165.711796 41.478649 162.701752 42.545437 159.71675 C 43.617232 156.731748 44.759146 153.771789 45.971177 150.841879 C 47.183208 147.91197 48.470364 145.017119 49.82263 142.14731 C 51.179905 139.28251 52.607296 136.44776 54.099797 133.653077 C 55.597307 130.853386 57.159925 128.09877 58.787652 125.379213 C 60.420388 122.654648 62.118233 119.980167 63.876179 117.340744 C 65.639133 114.70633 67.467196 112.111983 69.35536 109.567719 C 71.243524 107.018448 73.191788 104.51926 75.205162 102.065148 C 77.218536 99.616044 79.287001 97.217024 81.420577 94.86308 C 83.549143 92.514144 85.732802 90.2203 87.976562 87.976541 C 90.220322 85.732781 92.514165 83.549122 94.863101 81.420555 C 97.217045 79.28698 99.616065 77.218514 102.065169 75.205141 C 104.519281 73.191767 107.018469 71.243503 109.567741 69.355339 C 112.112004 67.467175 114.706351 65.639112 117.340765 63.876158 C 119.980188 62.118212 122.654669 60.420367 125.379235 58.787631 C 128.098792 57.159904 130.853407 55.597285 133.653098 54.099776 C 136.447781 52.607275 139.282531 51.179883 142.147332 49.822609 C 145.01714 48.470343 147.911991 47.183187 150.8419 45.971156 C 153.77181 44.759125 156.73177 43.617211 159.716771 42.545415 C 162.701773 41.478628 165.711817 40.486966 168.746902 39.565422 C 171.781988 38.643878 174.837107 37.79746 177.917268 37.026167 C 180.992421 36.254875 184.082599 35.563717 187.197819 34.942676 C 190.308031 34.326644 193.428259 33.780729 196.568521 33.314949 C 199.703774 32.854177 202.849045 32.463522 206.004332 32.153002 C 209.164627 31.842481 212.324923 31.607087 215.490227 31.451827 C 218.660539 31.296567 221.830851 31.221441 225.001163 31.221441 C 228.171476 31.221441 231.341788 31.296567 234.507092 31.451827 C 237.677404 31.607087 240.837699 31.842481 243.992986 32.153002 C 247.148273 32.463522 250.298552 32.854177 253.433806 33.314949 C 256.569059 33.780729 259.694296 34.326644 262.804507 34.942676 C 265.914719 35.563717 269.009905 36.254875 272.085058 37.026167 C 275.160211 37.79746 278.21533 38.643878 281.250416 39.565422 C 284.285501 40.486966 287.295545 41.478628 290.280547 42.545415 C 293.270557 43.617211 296.225508 44.759125 299.155418 45.971156 C 302.085327 47.183187 304.985186 48.470343 307.849987 49.822609 C 310.719795 51.179883 313.549537 52.607275 316.349228 54.099776 C 319.143911 55.597285 321.903535 57.159904 324.623092 58.787631 C 327.342649 60.420367 330.022139 62.118212 332.656553 63.876158 C 335.295976 65.639112 337.885314 67.467175 340.434586 69.355339 C 342.983858 71.243503 345.483045 73.191767 347.932149 75.205141 C 350.386261 77.218514 352.785281 79.28698 355.134217 81.420555 C 357.483153 83.549122 359.782005 85.732781 362.020756 87.976541 C 364.264516 90.2203 366.453183 92.514144 368.58175 94.86308 C 370.710317 97.217024 372.783791 99.616044 374.792156 102.065148 C 376.80553 104.51926 378.753794 107.018448 380.646967 109.567719 C 382.535131 112.111983 384.358185 114.70633 386.121139 117.340744 C 387.884093 119.980167 389.581938 122.654648 391.209666 125.379213 C 392.842402 128.09877 394.40502 130.853386 395.897521 133.653077 C 397.39503 136.44776 398.817413 139.28251 400.174688 142.14731 C 401.531962 145.017119 402.81411 147.91197 404.03115 150.841879 C 405.243181 153.771789 406.385094 156.731748 407.451882 159.71675 C 408.518669 162.701752 409.515339 165.711796 410.436883 168.746881 C 411.358427 171.781967 412.199837 174.837086 412.97113 177.917247 C 413.742422 180.9924 414.438589 184.082578 415.054621 187.197798 C 415.675662 190.30801 416.216568 193.428238 416.682348 196.5685 C 417.148129 199.703753 417.533775 202.849024 417.849304 206.004311 C 418.159824 209.164606 418.39021 212.324902 418.54547 215.490205 C 418.70073 218.660518 418.780865 221.83083 418.780865 225.001142 Z M 418.780865 225.001142 " stroke="url(#99b05b050f)" stroke-width="60" stroke-miterlimit="10"/></g><g clip-path="url(#653badd731)"><g clip-path="url(#3fd4d4b069)"><g clip-path="url(#7a6d96e647)"><path fill="#ffffff" d="M 214.515625 524.003906 L 562.730469 245.09375 L 595.488281 285.992188 L 247.273438 564.902344 Z M 214.515625 524.003906 " fill-opacity="1" fill-rule="nonzero"/></g></g></g></svg>